<svg width="83" height="31" viewBox="0 0 83 31" fill="none" xmlns="http://www.w3.org/2000/svg">
<path d="M5.70899 23.0002H0.791992L4.65299 0.461222H9.56999L5.70899 23.0002Z" fill="#2B2D42"/>
<path d="M22.1007 6.36822C22.9587 6.36822 23.6737 6.51122 24.2457 6.79722C24.8397 7.08322 25.3017 7.47922 25.6317 7.98522C25.9617 8.46922 26.1707 9.05222 26.2587 9.73422C26.3467 10.4162 26.3247 11.1422 26.1927 11.9122L24.3777 23.0002H19.4277L20.9457 14.2552C21.0117 13.9032 21.0667 13.4962 21.1107 13.0342C21.1767 12.5502 21.1767 12.1102 21.1107 11.7142C21.0667 11.2962 20.9237 10.9442 20.6817 10.6582C20.4617 10.3722 20.0877 10.2292 19.5597 10.2292C19.2077 10.2292 18.8227 10.3612 18.4047 10.6252C18.0087 10.8672 17.6127 11.2522 17.2167 11.7802C16.8207 12.2862 16.4577 12.9352 16.1277 13.7272C15.7977 14.4972 15.5447 15.4102 15.3687 16.4662L14.2797 23.0002H9.36271L11.0457 13.1002C11.2437 11.9562 11.4197 10.8562 11.5737 9.80022C11.7497 8.72222 11.9037 7.69922 12.0357 6.73122L16.4907 6.63222L16.0617 10.0972H16.1277C16.9197 8.84322 17.8437 7.90822 18.8997 7.29222C19.9777 6.67622 21.0447 6.36822 22.1007 6.36822Z" fill="#2B2D42"/>
<path d="M45.8458 23.0002H40.6318L40.1698 17.5882H33.9658L31.6558 23.0002H26.4088L36.7708 0.428223H43.1068L45.8458 23.0002ZM39.1798 4.22322L37.9918 7.42422L35.4838 13.7272H39.8728L39.4438 7.45722L39.2458 4.22322H39.1798Z" fill="#2B2D42"/>
<path d="M57.6154 10.2952C56.8234 10.2952 56.0424 10.7352 55.2724 11.6152C54.5244 12.4952 54.0074 13.8922 53.7214 15.8062C53.6334 16.2022 53.5344 16.7192 53.4244 17.3572C53.3364 17.9732 53.2704 18.4792 53.2264 18.8752C53.5124 19.1172 53.8314 19.3152 54.1834 19.4692C54.5574 19.6012 54.9864 19.6672 55.4704 19.6672C56.0644 19.6672 56.6144 19.4692 57.1204 19.0732C57.6264 18.6772 58.0554 18.1602 58.4074 17.5222C58.7594 16.8842 59.0344 16.1692 59.2324 15.3772C59.4304 14.5632 59.5294 13.7382 59.5294 12.9022C59.5294 12.1762 59.3864 11.5602 59.1004 11.0542C58.8144 10.5482 58.3194 10.2952 57.6154 10.2952ZM54.3484 9.89922C54.6344 9.41522 54.9644 8.96422 55.3384 8.54622C55.7344 8.10622 56.1524 7.73222 56.5924 7.42422C57.0324 7.09422 57.5054 6.84122 58.0114 6.66522C58.5174 6.46722 59.0234 6.36822 59.5294 6.36822C60.4094 6.36822 61.1684 6.54422 61.8064 6.89622C62.4444 7.22622 62.9724 7.67722 63.3904 8.24922C63.8084 8.82122 64.1164 9.49222 64.3144 10.2622C64.5344 11.0102 64.6444 11.8022 64.6444 12.6382C64.6444 13.9802 64.4354 15.3002 64.0174 16.5982C63.6214 17.8742 63.0384 19.0182 62.2684 20.0302C61.5204 21.0202 60.5964 21.8232 59.4964 22.4392C58.3964 23.0332 57.1644 23.3302 55.8004 23.3302C55.1624 23.3302 54.5684 23.2312 54.0184 23.0332C53.4684 22.8572 53.0174 22.5822 52.6654 22.2082H52.5994L51.2464 30.2272H46.3624L49.2334 13.1332C49.4094 12.0332 49.5744 10.9662 49.7284 9.93222C49.9044 8.89822 50.0694 7.83122 50.2234 6.73122L54.6784 6.63222L54.2824 9.89922H54.3484Z" fill="#2B2D42"/>
<path d="M75.8879 10.2952C75.0959 10.2952 74.3149 10.7352 73.5449 11.6152C72.7969 12.4952 72.2799 13.8922 71.9939 15.8062C71.9059 16.2022 71.8069 16.7192 71.6969 17.3572C71.6089 17.9732 71.5429 18.4792 71.4989 18.8752C71.7849 19.1172 72.1039 19.3152 72.4559 19.4692C72.8299 19.6012 73.2589 19.6672 73.7429 19.6672C74.3369 19.6672 74.8869 19.4692 75.3929 19.0732C75.8989 18.6772 76.3279 18.1602 76.6799 17.5222C77.0319 16.8842 77.3069 16.1692 77.5049 15.3772C77.7029 14.5632 77.8019 13.7382 77.8019 12.9022C77.8019 12.1762 77.6589 11.5602 77.3729 11.0542C77.0869 10.5482 76.5919 10.2952 75.8879 10.2952ZM72.6209 9.89922C72.9069 9.41522 73.2369 8.96422 73.6109 8.54622C74.0069 8.10622 74.4249 7.73222 74.8649 7.42422C75.3049 7.09422 75.7779 6.84122 76.2839 6.66522C76.7899 6.46722 77.2959 6.36822 77.8019 6.36822C78.6819 6.36822 79.4409 6.54422 80.0789 6.89622C80.7169 7.22622 81.2449 7.67722 81.6629 8.24922C82.0809 8.82122 82.3889 9.49222 82.5869 10.2622C82.8069 11.0102 82.9169 11.8022 82.9169 12.6382C82.9169 13.9802 82.7079 15.3002 82.2899 16.5982C81.8939 17.8742 81.3109 19.0182 80.5409 20.0302C79.7929 21.0202 78.8689 21.8232 77.7689 22.4392C76.6689 23.0332 75.4369 23.3302 74.0729 23.3302C73.4349 23.3302 72.8409 23.2312 72.2909 23.0332C71.7409 22.8572 71.2899 22.5822 70.9379 22.2082H70.8719L69.5189 30.2272H64.6349L67.5059 13.1332C67.6819 12.0332 67.8469 10.9662 68.0009 9.93222C68.1769 8.89822 68.3419 7.83122 68.4959 6.73122L72.9509 6.63222L72.5549 9.89922H72.6209Z" fill="#2B2D42"/>
</svg>
