<svg width="41" height="40" viewBox="0 0 41 40" fill="none" xmlns="http://www.w3.org/2000/svg">
<path fill-rule="evenodd" clip-rule="evenodd" d="M18.6527 0.018322C16.9768 0.151639 15.3345 0.435776 14.1647 0.794811C13.699 0.937751 12.5795 1.34384 12.1176 1.53739C11.1392 1.94735 9.62168 2.78922 8.64706 3.46274C8.05662 3.87076 7.88436 3.99328 7.77502 4.08284C7.7099 4.13618 7.54794 4.26461 7.41511 4.36823C6.36017 5.19116 5.09042 6.45466 4.18725 7.58022C3.20735 8.80137 2.17825 10.5129 1.59626 11.8894C1.11323 13.0319 0.819467 13.922 0.483617 15.2612C0.421827 15.5074 0.184137 16.8682 0.129545 17.288C0.0233917 18.1047 -0.0163875 19.0747 0.00604034 20.2999C0.0311201 21.671 0.0845001 22.2689 0.295216 23.539C0.953883 27.5094 2.49462 30.8483 4.91911 33.5596C5.46272 34.1675 5.59569 34.3036 6.11282 34.7818C7.04714 35.6457 8.16796 36.5126 9.06773 37.0671C9.17195 37.1314 9.39365 37.2683 9.56035 37.3715C10.8158 38.1488 12.6884 39.0264 13.8982 39.4046C14.6381 39.6359 15.9392 40 16.0257 40C16.2137 40 16.0411 39.9125 15.4988 39.733C13.6223 39.1116 12.4151 38.4173 11.3855 37.367C10.3935 36.3553 9.67165 35.0474 9.21666 33.4378C8.93782 32.4514 8.82246 31.7734 8.74423 30.6614C8.6871 29.8495 8.76905 28.5704 8.93597 27.6685C9.204 26.2203 9.85233 24.1375 10.4814 22.7036C10.8973 21.7558 11.6352 20.3502 11.9973 19.8158C12.0358 19.7591 12.2022 19.5097 12.3671 19.2618C12.7317 18.7134 12.7244 18.7239 13.005 18.3488C14.3937 16.4925 16.1883 14.7948 18.1223 13.5078C18.3307 13.3692 18.5438 13.2255 18.5959 13.1886C18.7797 13.0584 19.5978 12.58 20.2439 12.225C21.0009 11.8089 22.2801 11.2202 22.9139 10.9961C23.0498 10.948 23.2293 10.8837 23.3128 10.8531C23.9953 10.603 25.4026 10.282 26.4381 10.1403C26.9247 10.0737 29.0563 10.0735 29.5446 10.14C30.4039 10.2571 31.2684 10.4353 31.9776 10.6416C34.1368 11.2696 35.678 12.2989 36.7672 13.8405C37.7971 15.2982 38.3107 17.073 38.2467 18.9525C38.2146 19.8948 38.0738 20.7685 37.7793 21.8531C37.119 24.2848 36.212 26.1926 34.8526 28.0094C34.2023 28.8786 32.9263 30.1731 32.1065 30.7955C30.4901 32.0225 28.9189 32.884 27.1615 33.5068C26.5066 33.7388 25.4917 33.9948 24.9227 34.0715C24.2096 34.1675 23.009 34.1878 22.3844 34.1144C21.7645 34.0415 21.5233 33.9805 21.0727 33.7829C20.0093 33.3165 19.4497 32.5052 19.403 31.3622C19.3864 30.9576 19.3974 30.8658 19.557 30.0742C19.9671 28.039 20.6119 25.5294 21.0852 24.1262C21.2784 23.5536 21.3196 23.4564 21.4987 23.1518C22.2056 21.9495 23.5953 21.0253 25.0174 20.8118C25.3906 20.7558 25.8387 20.736 25.8765 20.7738C25.8872 20.7845 25.8212 21.0741 25.73 21.4175C25.4397 22.5101 24.9524 24.3177 24.7138 25.187C24.6194 25.5308 24.4745 26.0678 24.3918 26.3804C24.309 26.6929 24.1721 27.2044 24.0876 27.5169C23.9568 28.0004 23.6335 29.2137 23.5173 29.6574C23.4523 29.9056 23.3708 30.5469 23.3701 30.8154C23.3676 31.75 23.7697 32.2631 24.5603 32.3342C25.037 32.3771 26.2616 32.0466 27.1011 31.6484C27.865 31.286 28.4274 30.8795 29.1945 30.1353C31.8435 27.5652 33.4246 24.6876 33.9533 21.4743C34.0064 21.1513 34.0717 20.7251 34.0984 20.5272C34.1661 20.0252 34.1649 17.7122 34.0967 17.2385C33.9012 15.8801 33.3449 14.711 32.5333 13.9529C31.2939 12.7953 29.5712 12.2665 27.0476 12.269C26.047 12.27 25.3314 12.3408 24.3995 12.5311C23.2544 12.7648 22.2125 13.1036 21.1234 13.5962C20.6621 13.8049 19.7734 14.2721 19.5448 14.426C19.4917 14.4617 19.2608 14.6164 19.0316 14.7696C17.6128 15.7182 16.4003 16.8791 15.3132 18.3298C14.9805 18.7738 14.4546 19.5619 14.2226 19.9642C13.6485 20.9595 13.2401 21.7998 12.8994 22.6866C11.8905 25.3133 11.6693 28.1442 12.2764 30.6614C12.5529 31.8076 13.0101 32.8313 13.647 33.7301C14.2213 34.5405 14.9764 35.2734 15.8303 35.8493C16.5881 36.3604 17.8871 36.8843 18.7874 37.0418C19.6346 37.19 19.9894 37.2155 21.1721 37.213C24.021 37.2068 26.3719 36.7704 28.7112 35.8134C29.2493 35.5933 30.1836 35.1311 30.738 34.8108C32.756 33.6449 34.5243 32.0929 36.1745 30.039C36.8416 29.2088 37.0389 28.9765 37.3437 28.6629C37.7375 28.2575 38.006 28.0787 38.5815 27.8384C38.8252 27.7366 39.0585 27.6227 39.1 27.5852C39.2143 27.4818 39.2904 27.3069 39.5006 26.6645C40.4917 23.6363 40.7603 20.5299 40.3231 17.1554C40.1437 15.7711 39.6423 13.787 39.1598 12.5524C38.1447 9.95481 36.7764 7.86724 34.7917 5.88809C34.1462 5.24443 32.9309 4.20919 32.3621 3.81856C32.3177 3.78806 32.0705 3.61583 31.8127 3.43584C29.7347 1.98455 27.7934 1.11384 25.3962 0.557917C24.3074 0.305414 22.9846 0.112958 21.7847 0.0324909C21.2655 -0.00232529 19.039 -0.0124027 18.6527 0.018322ZM26.5373 13.6901C27.4843 13.8532 28.1102 14.4791 28.2741 15.4271C28.4936 16.696 28.069 17.9538 27.0926 18.9277C26.0758 19.942 24.6214 20.4143 23.3315 20.1491C22.3867 19.9549 21.711 19.3018 21.5301 18.4078C21.4517 18.0207 21.4698 17.3615 21.5707 16.9281C21.8207 15.8537 22.657 14.8234 23.7725 14.2153C24.6931 13.7135 25.6349 13.5346 26.5373 13.6901Z" fill="#EF233C"/>
</svg>
