<svg width="14" height="12" viewBox="0 0 14 12" fill="none" xmlns="http://www.w3.org/2000/svg">
<path d="M11.6668 0.666748H2.3335C1.80306 0.666748 1.29436 0.877462 0.919283 1.25253C0.54421 1.62761 0.333496 2.13631 0.333496 2.66675V9.33341C0.333496 9.86385 0.54421 10.3726 0.919283 10.7476C1.29436 11.1227 1.80306 11.3334 2.3335 11.3334H11.6668C12.1973 11.3334 12.706 11.1227 13.081 10.7476C13.4561 10.3726 13.6668 9.86385 13.6668 9.33341V2.66675C13.6668 2.13631 13.4561 1.62761 13.081 1.25253C12.706 0.877462 12.1973 0.666748 11.6668 0.666748ZM11.3935 2.00008L7.4735 5.92008C7.41152 5.98257 7.33779 6.03216 7.25655 6.06601C7.17531 6.09985 7.08817 6.11728 7.00016 6.11728C6.91216 6.11728 6.82502 6.09985 6.74378 6.06601C6.66254 6.03216 6.5888 5.98257 6.52683 5.92008L2.60683 2.00008H11.3935ZM12.3335 9.33341C12.3335 9.51023 12.2633 9.6798 12.1382 9.80482C12.0132 9.92984 11.8436 10.0001 11.6668 10.0001H2.3335C2.15669 10.0001 1.98712 9.92984 1.86209 9.80482C1.73707 9.6798 1.66683 9.51023 1.66683 9.33341V2.94008L5.58683 6.86008C5.96183 7.23462 6.47016 7.44499 7.00016 7.44499C7.53016 7.44499 8.0385 7.23462 8.4135 6.86008L12.3335 2.94008V9.33341Z" fill="#EF233C"/>
</svg>
